<?xml version="1.0" encoding="UTF-8"?>
<svg id="Capa_2" data-name="Capa 2" xmlns="http://www.w3.org/2000/svg" viewBox="0 0 95 95">
  <defs>
    <style>
      .cls-1 {
        fill: #fff;
        stroke-width: 0px;
      }
    </style>
  </defs>
  <g id="Capa_1-2" data-name="Capa 1">
    <path class="cls-1" d="M89.1,5.9h-17.8c0-3.3-2.7-5.9-5.9-5.9H29.7c-3.3,0-5.9,2.6-5.9,5.9H5.9c-3.3,0-5.9,2.6-5.9,5.9v11.9c0,13.2,10.6,23.8,23.7,23.8.3,0,.5-.1.8-.1,2.1,8.4,8.7,14.9,17,17.1v18.7h-11.8c-3.3,0-5.9,2.6-5.9,5.9v5.9h47.5v-5.9c0-3.3-2.7-5.9-5.9-5.9h-12v-18.7c8.3-2.2,14.9-8.7,17-17.1.3,0,.5.1.8.1,13.1,0,23.8-10.6,23.8-23.8v-11.8c0-3.3-2.7-6-5.9-6ZM11.9,23.7v-5.9h11.9v17.8c-6.6,0-11.9-5.3-11.9-11.9ZM83.1,23.7c0,6.6-5.3,11.9-11.9,11.9v-17.8h11.9v5.9Z"/>
  </g>
</svg>