<?xml version="1.0" encoding="UTF-8"?>
<svg id="Capa_2" data-name="Capa 2" xmlns="http://www.w3.org/2000/svg" viewBox="0 0 108 108">
  <defs>
    <style>
      .cls-1 {
        fill: #8b7e2e;
      }

      .cls-1, .cls-2, .cls-3, .cls-4, .cls-5, .cls-6, .cls-7, .cls-8, .cls-9, .cls-10, .cls-11, .cls-12, .cls-13, .cls-14, .cls-15, .cls-16, .cls-17, .cls-18, .cls-19, .cls-20, .cls-21, .cls-22, .cls-23, .cls-24, .cls-25, .cls-26, .cls-27, .cls-28, .cls-29, .cls-30, .cls-31, .cls-32, .cls-33, .cls-34, .cls-35, .cls-36, .cls-37, .cls-38, .cls-39, .cls-40, .cls-41, .cls-42, .cls-43, .cls-44, .cls-45, .cls-46, .cls-47, .cls-48, .cls-49, .cls-50, .cls-51, .cls-52, .cls-53, .cls-54, .cls-55, .cls-56, .cls-57, .cls-58, .cls-59, .cls-60, .cls-61, .cls-62, .cls-63, .cls-64, .cls-65, .cls-66, .cls-67, .cls-68, .cls-69, .cls-70, .cls-71, .cls-72, .cls-73, .cls-74, .cls-75, .cls-76, .cls-77, .cls-78, .cls-79, .cls-80, .cls-81, .cls-82, .cls-83, .cls-84, .cls-85, .cls-86, .cls-87, .cls-88, .cls-89, .cls-90, .cls-91, .cls-92, .cls-93, .cls-94, .cls-95, .cls-96, .cls-97, .cls-98, .cls-99, .cls-100, .cls-101, .cls-102, .cls-103, .cls-104, .cls-105, .cls-106, .cls-107, .cls-108, .cls-109, .cls-110, .cls-111, .cls-112, .cls-113, .cls-114, .cls-115, .cls-116, .cls-117, .cls-118, .cls-119, .cls-120, .cls-121, .cls-122, .cls-123, .cls-124, .cls-125, .cls-126, .cls-127, .cls-128, .cls-129, .cls-130, .cls-131, .cls-132, .cls-133, .cls-134, .cls-135, .cls-136, .cls-137, .cls-138, .cls-139, .cls-140, .cls-141, .cls-142, .cls-143, .cls-144, .cls-145, .cls-146, .cls-147, .cls-148, .cls-149, .cls-150, .cls-151, .cls-152, .cls-153, .cls-154, .cls-155, .cls-156, .cls-157, .cls-158 {
        stroke-width: 0px;
      }

      .cls-2 {
        fill: #664324;
      }

      .cls-3 {
        fill: #806530;
      }

      .cls-4 {
        fill: #714e39;
      }

      .cls-5 {
        fill: #764e3c;
      }

      .cls-6 {
        fill: #ac8580;
      }

      .cls-7 {
        fill: #a3802c;
      }

      .cls-8 {
        fill: #e3bf6f;
      }

      .cls-9 {
        fill: #653d2c;
      }

      .cls-10 {
        fill: #a48525;
      }

      .cls-11 {
        fill: #795747;
      }

      .cls-12 {
        fill: #e6c534;
      }

      .cls-13 {
        fill: #805a49;
      }

      .cls-14 {
        fill: #9b806a;
      }

      .cls-15 {
        fill: #dbbba4;
      }

      .cls-16 {
        fill: #dfab0b;
      }

      .cls-17 {
        fill: #573324;
      }

      .cls-18 {
        fill: #dbaf0a;
      }

      .cls-19 {
        fill: #da9d00;
      }

      .cls-20 {
        fill: #e9ca1a;
      }

      .cls-21 {
        fill: #b09422;
      }

      .cls-22 {
        fill: #805946;
      }

      .cls-23 {
        fill: #6b4637;
      }

      .cls-24 {
        fill: #e9c918;
      }

      .cls-25 {
        fill: #806552;
      }

      .cls-26 {
        fill: #eacb14;
      }

      .cls-27 {
        fill: #603a29;
      }

      .cls-28 {
        fill: #d5b540;
      }

      .cls-29 {
        fill: #785444;
      }

      .cls-30 {
        fill: #dfc23f;
      }

      .cls-31 {
        fill: #6b432a;
      }

      .cls-32 {
        fill: #c2a21d;
      }

      .cls-33 {
        fill: #ddbd97;
      }

      .cls-34 {
        fill: #907857;
      }

      .cls-35 {
        fill: #694633;
      }

      .cls-36 {
        fill: #745118;
      }

      .cls-37 {
        fill: #e5c863;
      }

      .cls-38 {
        fill: #dbbd9c;
      }

      .cls-39 {
        fill: #e3cc7f;
      }

      .cls-40 {
        fill: #654231;
      }

      .cls-41 {
        fill: #80805f;
      }

      .cls-42 {
        fill: #c4ae7f;
      }

      .cls-43 {
        fill: #caac2b;
      }

      .cls-44 {
        fill: #ffcc20;
      }

      .cls-45 {
        fill: #9c801d;
      }

      .cls-46 {
        fill: #d4ab34;
      }

      .cls-47 {
        fill: #ba9954;
      }

      .cls-48 {
        fill: #714c3d;
      }

      .cls-49 {
        fill: #654128;
      }

      .cls-50 {
        fill: #e0ba7b;
      }

      .cls-51 {
        fill: #7b6f4d;
      }

      .cls-52 {
        fill: #b99b63;
      }

      .cls-53 {
        fill: #e5c341;
      }

      .cls-54 {
        fill: #c09d2e;
      }

      .cls-55 {
        fill: #744e3d;
      }

      .cls-56 {
        fill: #673f2c;
      }

      .cls-57 {
        fill: #e8c92a;
      }

      .cls-58 {
        fill: #d8b291;
      }

      .cls-59 {
        fill: #7f5a48;
      }

      .cls-60 {
        fill: #ab8000;
      }

      .cls-61 {
        fill: #6a4432;
      }

      .cls-62 {
        fill: #492007;
      }

      .cls-63 {
        fill: #633d25;
      }

      .cls-64 {
        fill: none;
      }

      .cls-65 {
        fill: #e9d515;
      }

      .cls-66 {
        fill: #e4c640;
      }

      .cls-67 {
        fill: #8e7a66;
      }

      .cls-68 {
        fill: #bd9a42;
      }

      .cls-69 {
        fill: #806f39;
      }

      .cls-70 {
        fill: #704c3d;
      }

      .cls-71 {
        fill: #e3c89c;
      }

      .cls-72 {
        fill: #ead01e;
      }

      .cls-73 {
        fill: #8a8063;
      }

      .cls-74 {
        fill: #c39f82;
      }

      .cls-75 {
        fill: #80752d;
      }

      .cls-76 {
        fill: #debfa0;
      }

      .cls-77 {
        fill: #a4806f;
      }

      .cls-78 {
        fill: #cba184;
      }

      .cls-79 {
        fill: #937e37;
      }

      .cls-80 {
        fill: #dfaa00;
      }

      .cls-81 {
        fill: #b88d39;
      }

      .cls-82 {
        fill: #a58075;
      }

      .cls-83 {
        fill: #4a2006;
      }

      .cls-84 {
        fill: #73523b;
      }

      .cls-85 {
        fill: #e9c919;
      }

      .cls-86 {
        fill: #e2cf80;
      }

      .cls-87 {
        fill: #d5b399;
      }

      .cls-88 {
        fill: #a48063;
      }

      .cls-89 {
        fill: #827f50;
      }

      .cls-90 {
        fill: #653e2d;
      }

      .cls-91 {
        fill: #e1bf81;
      }

      .cls-92 {
        fill: #e6c42c;
      }

      .cls-93 {
        fill: #e8c92d;
      }

      .cls-94 {
        fill: #e5c61d;
      }

      .cls-95 {
        fill: #bc9380;
      }

      .cls-96 {
        fill: #dec70c;
      }

      .cls-97 {
        fill: #ac8232;
      }

      .cls-98 {
        fill: #683f26;
      }

      .cls-99 {
        fill: #d9bd9d;
      }

      .cls-100 {
        fill: #e5c452;
      }

      .cls-101 {
        fill: #87725a;
      }

      .cls-102 {
        fill: #806c33;
      }

      .cls-103 {
        fill: #806e5c;
      }

      .cls-104 {
        fill: #6d4637;
      }

      .cls-105 {
        fill: #e5c52e;
      }

      .cls-106 {
        fill: #bb9480;
      }

      .cls-107 {
        fill: #e6c642;
      }

      .cls-108 {
        fill: #4b2105;
      }

      .cls-109 {
        fill: #ddbca7;
      }

      .cls-110 {
        fill: #dbbb1d;
      }

      .cls-111 {
        fill: #b88e80;
      }

      .cls-112 {
        fill: #e3ba45;
      }

      .cls-113 {
        fill: #897662;
      }

      .cls-114 {
        fill: #806a58;
      }

      .cls-115 {
        fill: #e2bf3f;
      }

      .cls-116 {
        fill: #a99080;
      }

      .cls-117 {
        fill: #693f2d;
      }

      .cls-118 {
        fill: #e6b500;
      }

      .cls-119 {
        fill: #704e41;
      }

      .cls-120 {
        fill: #d1af96;
      }

      .cls-121 {
        fill: #dbd29a;
      }

      .cls-122 {
        fill: #a59667;
      }

      .cls-123 {
        fill: #593626;
      }

      .cls-124 {
        fill: #b18880;
      }

      .cls-125 {
        fill: #694426;
      }

      .cls-126 {
        fill: #472109;
      }

      .cls-127 {
        fill: #b88d80;
      }

      .cls-128 {
        fill: #e8c833;
      }

      .cls-129 {
        fill: #b68c80;
      }

      .cls-130 {
        fill: #ae892b;
      }

      .cls-131 {
        fill: #67402f;
      }

      .cls-132 {
        fill: #eacc29;
      }

      .cls-133 {
        fill: #e9bd04;
      }

      .cls-134 {
        fill: #623d2c;
      }

      .cls-135 {
        fill: #e9c148;
      }

      .cls-136 {
        fill: #80680f;
      }

      .cls-137 {
        fill: #97806b;
      }

      .cls-138 {
        fill: #cfad84;
      }

      .cls-139 {
        fill: #e2bc8e;
      }

      .cls-140 {
        fill: #dbbc90;
      }

      .cls-141 {
        fill: #583722;
      }

      .cls-142 {
        fill: #92806a;
      }

      .cls-143 {
        fill: #653d2b;
      }

      .cls-144 {
        fill: #857865;
      }

      .cls-145 {
        fill: #9a8032;
      }

      .cls-146 {
        fill: #674131;
      }

      .cls-147 {
        fill: #d4b496;
      }

      .cls-148 {
        fill: #cda58d;
      }

      .cls-149 {
        fill: #cea680;
      }

      .cls-150 {
        fill: #623b2a;
      }

      .cls-151 {
        fill: #ad862a;
      }

      .cls-152 {
        fill: #784e3c;
      }

      .cls-153 {
        fill: #d5ad95;
      }

      .cls-154 {
        fill: #e3b903;
      }

      .cls-155 {
        fill: #5f3a2a;
      }

      .cls-156 {
        fill: #cca78a;
      }

      .cls-157 {
        fill: #643d2b;
      }

      .cls-158 {
        fill: #8a7e29;
      }
    </style>
  </defs>
  <g id="App_Icon" data-name="App Icon">
    <rect class="cls-64" width="108" height="108"/>
    <g id="Circle">
      <path class="cls-40" d="M22.93,34.82c2.32-1.23,2.67-4.4,5.19-5.44.66.55.75,1.29.69,2.09-.11.77-.45,1.42-.9,2.03-.94,1.06-1.89,2.12-2.44,3.48-2.45,4.78-4.5,9.7-4.96,15.15-.45,1.36-.58,2.73-.07,4.11.19.68.34,1.38.47,2.08.62,2.78,1.39,5.51,2.42,8.16.36.96.92,1.81,1.48,2.66.9,1.8,1.92,3.52,3.14,5.11,1.31,1.97,3.78,3.04,4.27,5.65-.12.73-.42,1.36-1.09,1.74-6.83-5.19-11.21-12.27-12.49-20.59-1.13-7.36-1.06-15.05,2.66-22.06.69-1.3,1.1-2.77,1.64-4.16Z"/>
      <path class="cls-23" d="M83.1,73.85c-7.33,10.27-16.96,16.13-29.71,16.15-7.06.01-13.71-1.18-19.25-6.06-.46-.72-.63-1.47-.19-2.28.8-.64,1.47-.15,2.16.23,3.95,3.74,9,4.41,14.02,5.12,2.39.61,4.78.59,7.18.04,1.06-.28,2.16-.41,3.21-.75,1.2-.32,2.46-.32,3.64-.74,2.68-.64,5.14-1.73,7.19-3.65,2.31-2.47,5.12-4.36,7.51-6.74.98-.85,1.74-1.92,2.61-2.87.29-.17.6-.23.92-.16.7.38.44,1.16.72,1.72Z"/>
      <path class="cls-146" d="M83.1,73.85c-.22-.51-.43-1.02-.65-1.53-.57-2.48,1.45-4.21,1.79-6.43,3.94-9.46,2.82-18.61-1.64-27.55-.21-.29-.4-.59-.57-.91-.65-1.38-1.21-2.83-2.59-3.69-1.96-2.72-5.57-3.95-6.61-7.51,0-.59.14-1.1.6-1.49,7.85,4.66,12.53,11.64,14.34,20.6.26,1.27.76,2.3,1.33,3.38,1.05,1.41.21,3.07.6,4.57.48,1.83.42,3.61-.39,5.34.09,1.91-1.06,3.49-1.4,5.29-1.09,3.57-2.62,6.92-4.81,9.94Z"/>
      <path class="cls-61" d="M34.2,81.45c-.02.83-.04,1.66-.06,2.49-.88-.93-2.49-.9-3.01-2.32.04-.69.18-1.32.87-1.65.26-.2.55-.26.87-.19.68.36,1.53.59,1.33,1.67Z"/>
      <path class="cls-152" d="M73.42,24.74c-.02.57-.05,1.14-.07,1.71-1.4.85-2.35-.08-3.34-.86-.75-.97-1.78-1.48-2.93-1.8-1.91-.79-3.94-1.17-5.91-1.75-.52-.14-1.03-.31-1.52-.52-.69-.27-1.38-.54-2.08-.78-2.9-.67-5.88.15-8.77-.57-.58-.26-1.08-.59-1.03-1.34.69-.1,1.39-.19,2.08-.29,2.27-.09,4.5-.92,6.8-.32,1.5.46,3.2-.47,4.61.65,4.25,1.54,8.8,2.44,12.16,5.88Z"/>
      <path class="cls-55" d="M47.77,18.83c.25.21.49.42.74.64.18.2.26.41.23.63-.03.23-.07.34-.12.34-.22.29-.48.54-.76.76-1.95,1.69-4.71,1.28-6.78,2.68-2,.7-3.65,2.45-6.01,2.11-.54-.24-.9-.64-1.03-1.23,3.99-3.36,8.75-4.89,13.72-5.93Z"/>
      <path class="cls-134" d="M34.05,24.76c.3.29.6.59.89.88.33,1.68-1.14,2.04-2.02,2.84-.63.42-1.29.74-2.06.74-.73-.17-1.54-.27-1.26-1.38,1.58-.89,2.47-2.79,4.44-3.09Z"/>
      <path class="cls-11" d="M29.61,27.84c.36.69.98.83,1.67.85-.06,2.04-1.13,3.07-3.1,3.18-.02-.83-.03-1.66-.05-2.5.49-.51.99-1.02,1.48-1.54Z"/>
      <path class="cls-20" d="M28.18,31.88c1.03-1.06,2.07-2.12,3.1-3.18.44-.29.88-.58,1.31-.87.76.2,1.06.74,1.09,1.49-.12.5-.39.92-.71,1.3-.93.92-1.63,1.99-2.1,3.22-1.66,1.97-3.19,4.03-4.33,6.37-1.83,3.12-2.74,6.52-3.05,10.1-.58,2.68-.58,5.35.01,8.02.75,4.4,2.09,8.56,4.63,12.28.71,1.04,1.37,2.13,1.11,3.51-.45.91-1.1,1.14-1.96.55-1.04-1.71-2.6-3.12-2.96-5.23-.6-1.22-1.18-2.44-1.8-3.65-.46-2.8-1.63-5.43-1.91-8.27-.24-2.09-.28-4.17-.01-6.25,0-5.03,2.04-9.43,4.14-13.81.94-1.43,1.78-2.93,2.69-4.38.25-.4.5-.8.75-1.2Z"/>
      <path class="cls-120" d="M25.21,37.32c-1.94,4.33-3.76,8.69-3.95,13.55-.69,2.16-.13,4.38-.32,6.56-.03.65-.18,1.2-1,1.11-.08-.76-.15-1.53-.23-2.29-.36-1.28-.42-2.56.04-3.83.2-5.94,2.3-11.25,5.3-16.25.42.33.47.72.16,1.16Z"/>
      <path class="cls-93" d="M27.26,74.68c.67-.06,1.32-.17,1.65-.88,2.68.28,3.94,2.15,4.81,4.46-.09.77-.39,1.41-1.06,1.83-.22-.05-.44-.08-.67-.11-1.58-1.76-3.15-3.53-4.73-5.29Z"/>
      <path class="cls-33" d="M19.94,58.54c.22-.28.45-.55.67-.83.27-.3.47-.25.63.11.56,2.72,1.13,5.43,1.69,8.15.28.45.23.85-.17,1.19-1.56-2.67-1.93-5.73-2.83-8.62Z"/>
      <path class="cls-140" d="M25.21,37.32c-.05-.39-.11-.77-.16-1.16.06-1.61,1.32-2.27,2.38-3.09.02,1.82-1.12,3.02-2.21,4.25Z"/>
      <path class="cls-87" d="M22.77,67.17c.06-.4.11-.79.17-1.19.86.99,1.44,2.1,1.36,3.47-.95-.46-1.37-1.28-1.53-2.28Z"/>
      <path class="cls-13" d="M19.75,52.42c-.01,1.28-.02,2.55-.04,3.83-.92-1.29-.99-2.56.04-3.83Z"/>
      <path class="cls-85" d="M32.66,80.08c.04-.64.12-1.26.77-1.59,1.64-.52,2.34,1.13,3.57,1.58,1.07.6,2.14,1.2,3.18,1.84,3.43,1.88,7.27,2.25,10.97,3.13,1.64.15,3.28.22,4.88-.31,4.83-.58,9.49-1.69,13.64-4.44,2.43-1.97,5.08-3.68,6.86-6.41.65-1,1.55-2.08,3.09-1.55.37.48.5,1.02.47,1.62-.15.56-.31,1.13-.63,1.62-1.87,2.85-5.25,4.04-7.25,6.75-2.87,1.53-5.74,3.1-8.83,4.14-1.38.06-2.79-.05-4.02.8-2.28.14-4.53.6-6.82.41-6.13-.22-11.82-1.91-17.02-5.25-.44-.32-.87-.65-1.31-.97-.51-.46-1.02-.91-1.53-1.37Z"/>
      <path class="cls-15" d="M35.51,82.42c2.39-.04,4.11,1.67,6.18,2.46,3.41,1.3,6.88,2.22,10.55,2.2.22.34.19.63-.14.88-.7.1-1.41.16-2.09-.12-5.34-.41-10.53-1.22-14.5-5.42Z"/>
      <path class="cls-109" d="M63.34,86.04c2.98-1.17,5.64-3.13,8.86-3.73-2.15,2.19-4.69,3.59-7.77,3.87-.41.34-.78.29-1.09-.15Z"/>
      <path class="cls-147" d="M84.83,66.35c.11,2.37-1.81,3.89-2.38,5.98-.2.04-.39.07-.6.08-.31.25-.63.28-.96.06.16-2.7,1.42-4.77,3.47-6.41.15.1.31.19.46.29Z"/>
      <path class="cls-91" d="M52.25,87.56c0-.16,0-.32-.02-.48,2.49-.07,4.99-.13,7.48-.2.34-.33.66-.3.95.07-.77,1.24-2.07.53-3.09.87-1.79.19-3.59.67-5.32-.26Z"/>
      <path class="cls-103" d="M52.25,87.56c1.77.09,3.55.17,5.32.26-2.52.98-5.04.95-7.57.02.75-.09,1.5-.19,2.24-.28Z"/>
      <path class="cls-99" d="M81.13,72.35c.24.02.48.03.72.05-.13,1.58-1.17,2.45-2.4,3.16.03-.47.06-.93.09-1.4.29-.83.5-1.72,1.6-1.81Z"/>
      <path class="cls-71" d="M60.66,86.95c-.32-.02-.63-.05-.95-.07,1.04-1.02,2.39-.67,3.63-.84.36.05.73.1,1.09.14-1.05,1.3-2.5.59-3.77.76Z"/>
      <path class="cls-132" d="M70.42,25.01c.98.48,1.95.96,2.93,1.44,1.68,2.83,5.13,3.91,6.63,6.93,1.33.9,1.41,2.66,2.51,3.72l-.04-.05c.74,1.19,1.49,2.39,1.79,3.8-.2.96-.61,1.71-1.69,1.83-1.32-.48-1.73-1.73-2.32-2.83-.38-.79-.66-1.62-.87-2.47-.29-1.64-1.51-2.56-2.67-3.52-.39-.35-.7-.76-.95-1.22-.98-2.2-2.94-3.17-4.96-4.04-1.72-.77-3.44-1.56-5.04-2.59-1.19-1.31-3.03-1.46-4.39-2.48-.24-.27-.41-.58-.51-.94-.07-.58.07-1.08.5-1.48,1.92.97,4.29.6,6.04,2.09.92.77,2.29.74,3.04,1.81Z"/>
      <path class="cls-76" d="M83.77,41c-.44-1.32-.88-2.63-1.32-3.95,4.46,5.99,5.71,12.93,5.03,20.13-.29,3.08-.65,6.45-2.65,9.16,0,0-.25-.28-.25-.28-1.05-3.12.28-5.99.88-8.95.75-2.08.68-4.17.09-6.26-.23-3.35-2.05-6.41-1.77-9.85Z"/>
      <path class="cls-38" d="M82.49,37.1c-1.45-.81-1.95-2.29-2.51-3.72,2.08.37,2.04,2.22,2.51,3.72Z"/>
      <path class="cls-26" d="M61.35,21.11c-.02.53-.05,1.06-.07,1.58-1.13.96-2.45.72-3.75.6-.35-.05-.7-.14-1.04-.24-1.85-.53-3.69-.56-5.52.09-.66.27-1.31.56-1.99.78-.9.26-1.83.32-2.76.37-1.53-.05-3,.85-4.56.31-.56-.29-.99-.66-.74-1.39,1.67-2.3,4.97-.62,6.68-2.83,4.13,0,8.29-.72,12.35.62.46.04.93.07,1.39.11Z"/>
      <path class="cls-139" d="M59.95,21.01c-4.11-.29-8.28.62-12.35-.62.28-.08.57-.15.86-.23,3.29-.51,6.59-.42,9.88-.05.61.16,1.34.1,1.61.9Z"/>
      <path class="cls-67" d="M58.35,20.11c-3.29.02-6.59.03-9.88.05.05-.23.06-.46.05-.69,3.27.36,6.63-.77,9.84.64Z"/>
      <path class="cls-58" d="M70.42,25.01c-1.13-.4-2.39-.57-3.04-1.81,1.26.18,2.66.11,3.04,1.81Z"/>
      <path class="cls-57" d="M40.92,23.21c.29.3.58.59.87.89.18.33.17.65-.02.97-.84.9-1.88,1.5-2.97,2.04-1.92.42-3.07,2.83-5.41,2.18-.27-.49-.54-.98-.81-1.47.61-.92,2.08-.89,2.35-2.19,1.99-.81,3.99-1.62,5.98-2.42Z"/>
      <path class="cls-131" d="M36.43,80.64c-1-.72-2-1.43-3-2.15-1.25-1.82-2.82-3.32-4.52-4.69-2.78-4.79-5.92-9.42-6.19-15.26-.38-2.82-.38-5.64,0-8.46-.08-3.92,1.18-7.42,3.27-10.65.94-.71,1.45-.17,1.86.66.32,2.96-2.07,5.18-2.11,8.04-.63,3.55-.53,7.1-.07,10.66.32,1.63.61,3.28,1.38,4.78.31.82.54,1.67.88,2.48,1.1,2.24,1.69,4.76,3.58,6.56,1.87,2.22,4.27,3.93,5.84,6.43.18.83-.15,1.36-.93,1.61Z"/>
      <path class="cls-48" d="M27.49,40.34c-.3-.64-.82-.91-1.49-.92,1.07-2.27,2.37-4.37,4.42-5.87.54-1.26,1.19-2.37,2.78-2.37.58.12,1.01.43,1.21,1.03.04.78-.26,1.45-.65,2.09-2.39,1.69-3.29,4.98-6.28,6.04Z"/>
      <path class="cls-148" d="M33.4,29.29c1.93-.7,3.13-2.78,5.37-2.88-.53,3.05-2.96,3.95-5.36,4.89-.61-.13-1.03-.39-.77-1.13.25-.29.51-.59.76-.88Z"/>
      <path class="cls-68" d="M22.73,50.08c0,2.82,0,5.64,0,8.46-1-2.82-.99-5.64,0-8.46Z"/>
      <path class="cls-50" d="M21.25,57.82c-.21-.04-.42-.07-.63-.11.24-2.28-.71-4.68.65-6.85,0,2.32-.01,4.64-.02,6.95Z"/>
      <path class="cls-149" d="M32.64,30.18c.26.27.53.53.79.8.38.42.29.61-.27.58-.91.67-1.82,1.33-2.74,2-.23-1.78,1.07-2.52,2.21-3.37Z"/>
      <path class="cls-150" d="M70.45,80.88c-4.37,2.94-9.18,4.48-14.42,4.58-1.72.72-3.59-.13-5.31.53-3.75-1.27-7.99-.99-11.31-3.64-.15-1.22.75-1.34,1.57-1.55,9.67,2.79,19.1,1.76,28.37-1.86.9.33,1.38.91,1.11,1.93Z"/>
      <path class="cls-27" d="M70.45,80.88c-.27-.5-.54-1.01-.81-1.51,1.16-3.33,4.78-4.52,6.35-7.5,2.12-2,3.12-4.68,4.31-7.24,1.28-2.23,1.07-4.8,1.54-7.21.67-2.67.2-5.39.36-8.09.21-1.27-.08-2.84,1.77-3.16.34.31.59.69.73,1.13.51,4.04.4,8.08.07,12.12-.91,4.65-1.33,9.52-5.37,12.83-3.05,2.81-5.28,6.5-8.96,8.63Z"/>
      <path class="cls-24" d="M79.41,72.25c2.69-3.58,3.32-7.97,4.59-12.11.48-.61.32-1.41.6-2.09.16-2.6.3-5.21-.1-7.8-.39-1.05.21-2.26-.5-3.26-.02-.23-.09-.44-.18-.65-.81-1.17-1.87-2.26-1.16-3.89.37-.49.75-.97,1.12-1.46,1.47,3.09,2.21,6.37,2.56,9.76.41,2.13.4,4.26,0,6.4-.59,2.97-1.18,5.94-1.77,8.91-1.15,2.09-2.3,4.19-3.45,6.28-.53.6-1.06,1.21-1.6,1.81-.04-.63-.09-1.27-.13-1.91Z"/>
      <path class="cls-4" d="M41.04,81.5c-.66.06-1.29.18-1.64.86-.99-.57-1.98-1.15-2.97-1.72.25-.44.5-.87.74-1.31,2.21-.98,3.28.14,3.86,2.17Z"/>
      <path class="cls-137" d="M50.71,85.99c1.67-1.26,3.55-.3,5.32-.53-1.66,1.33-3.53.47-5.32.53Z"/>
      <path class="cls-5" d="M65.77,25.49c1.77.82,3.54,1.65,5.32,2.47.31.27.43.61.34,1.02-.24.58-.7.88-1.29,1-3.69-.72-7.15-2.06-10.43-3.93-.46-.39-.78-.86-.86-1.48.42-1.22,1.35-1.24,2.37-1.04,1.6.45,3.34.55,4.54,1.95Z"/>
      <path class="cls-70" d="M80.05,37.22c.26.74.52,1.47.78,2.21-.3.8-.83,1.12-1.66.83-1.57-1.18-2.23-3.2-3.87-4.32-1.04-1.04-2.35-1.91-2.24-3.67.32-.87.98-1.13,1.82-1.07.84.21,1.26.84,1.53,1.61.06.21.19.37.38.48,1.26,1.16,2.55,2.3,3.25,3.94Z"/>
      <path class="cls-104" d="M79.51,40.16c.44-.24.88-.49,1.32-.73.61,1.01,1.21,2.02,1.82,3.03.43,1.28,1.76,2.29,1.16,3.89-.94.87-.47,2.03-.64,3.06-.38.2-.72.16-1.03-.15-1.34-2.9-2.13-5.96-2.64-9.11Z"/>
      <path class="cls-138" d="M76.41,32.81c-.51-.35-1.03-.71-1.54-1.06-1.66-.54-3.26-1.15-3.64-3.19-.06-.19-.1-.39-.14-.59,2.6.68,4.73,1.88,5.32,4.84Z"/>
      <path class="cls-74" d="M80.05,37.22c-1.08-1.31-2.17-2.62-3.25-3.94,1.97.56,3.09,1.84,3.25,3.94Z"/>
      <path class="cls-78" d="M65.77,25.49c-1.4-.52-2.8-1.04-4.2-1.55-.17-.07-.34-.14-.5-.22.08-.16.17-.33.25-.49,1.71.29,3.7.03,4.45,2.26Z"/>
      <path class="cls-153" d="M56.82,22.49c1.49.07,2.97.14,4.46.21,0,.18.01.36.04.54,0,0,0,.07,0,.07-1.41.38-2.8.98-4.28.32-.38-.32-.45-.69-.21-1.13Z"/>
      <path class="cls-112" d="M86.34,57.15c0-2.13,0-4.26,0-6.39,1.06,2.13,1.02,4.26,0,6.39Z"/>
      <path class="cls-22" d="M56.87,23.14c1.48.05,2.96.11,4.44.16.07.22.16.44.26.64-.87.19-1.9-.1-2.5.88-2.04,1.75-4.48.78-6.74,1.04-.58,0-1.15-.01-1.73-.04-1.54-.05-3.11-.31-4.47.77-.29.2-.59.37-.89.54-2.74,1.43-5.62,2.58-8.07,4.56-.84.68-1.79,1.43-3.01.73-.33-.29-.66-.58-.99-.87.1-.19.19-.38.27-.58,1.84-1.45,3.93-2.59,5.34-4.56.95-.58,1.56-1.8,2.91-1.66,1.56-.4,3.2-.51,4.63-1.34l2.88-.17c2.55-.74,5.1-1.22,7.68-.11Z"/>
      <path class="cls-127" d="M56.87,23.14c-2.56.04-5.12.08-7.68.11.27-.66.84-.77,1.45-.8,2.07-.48,4.13-.46,6.2,0,0,0-.03.05-.03.05.02.22.03.43.05.65Z"/>
      <path class="cls-156" d="M46.31,23.42c-1.18,1.73-2.92,1.5-4.63,1.34.02-.22.06-.44.12-.65,1.56.13,2.9-1.24,4.52-.69Z"/>
      <path class="cls-8" d="M56.85,22.44c-2.07,0-4.13,0-6.2,0,2.07-1.04,4.13-1.18,6.2,0Z"/>
      <path class="cls-106" d="M41.04,81.5c-1.22-.85-2.25-2.04-3.86-2.17-2.01-2.06-4.02-4.13-6.04-6.19-.59-.81-.37-1.39.49-1.78,4.18,1.74,6.96,5.66,11.16,7.37,2.51,1.27,5.41,1.05,7.97,2.09,1.76.66,3.53.6,5.3.06,2.85-.51,5.79-.62,8.37-2.18,3.69-2.32,6.71-5.62,10.67-7.54.75.06,1.61,0,1.33,1.22-1.67,2.93-4.41,4.79-6.81,6.98-9.24,4.72-18.77,5.5-28.6,2.13Z"/>
      <path class="cls-129" d="M27.49,40.34c1.81-2.26,3.26-4.85,5.82-6.4.73-.27.97.17,1.09.78-.25,1.14-.93,2.04-1.54,2.98-6.1,6.18-6.3,13.87-5.36,21.83.15,1.24.72,2.43.36,3.72-.27.58-.65.98-1.35.82-1.19-1.35-1.48-3-1.51-4.73-.39-3.86-.44-7.71.04-11.56-.39-2.89,1.93-4.86,2.45-7.45Z"/>
      <path class="cls-6" d="M31.85,71.59c-.59.35-.68.94-.71,1.55-2.4-1.63-2.84-4.42-3.89-6.85-.33-.84-.32-1.54.7-1.85,2.73,1.58,4.1,3.92,3.91,7.15Z"/>
      <path class="cls-114" d="M25.04,47.79c-.01,3.85-.02,7.71-.04,11.56-1.04-3.86-1.04-7.71.04-11.56Z"/>
      <path class="cls-101" d="M28.1,64.7c-.74.28-.69,1-.85,1.6-.67-.59-.67-1.41-.74-2.21.33-.33.65-.66.98-1,1.09.19,1.11.8.61,1.61Z"/>
      <path class="cls-82" d="M34.14,34.66c-.27-.24-.55-.47-.82-.71.09-.61.22-1.21.84-1.52,3.77-2.01,7.04-5.01,11.29-6.1.59.16.96.52,1,1.17-3.87,2.79-8.08,4.99-12.3,7.17Z"/>
      <path class="cls-95" d="M79.51,40.16c2.11,2.65,2.35,5.96,3.11,9.08.29,2.87.42,5.74-.08,8.6.05,2.67-.06,5.31-1.7,7.59-1.7.93-2.02-.44-2.51-1.54-.01-2.35.98-4.52,1.2-6.83.58-1.83.56-3.66-.01-5.49-.51-5.33-3.08-9.91-5.2-14.66.17-.82.27-1.7,1.46-1.44,1.98.95,2.79,2.87,3.73,4.68Z"/>
      <path class="cls-124" d="M78.82,63.9c.66.53.88,1.66,2.02,1.53-1.31,2.42-1.88,5.32-4.4,6.96-.26-.59-.76-.77-1.35-.79-.48-3.42,2.28-5.24,3.72-7.7Z"/>
      <path class="cls-29" d="M84,47c1.08.81.52,2.08.84,3.1.4,2.79.38,5.58.01,8.37-.15.63-.11,1.35-.85,1.68,0-4.38,0-8.76,0-13.14Z"/>
      <path class="cls-144" d="M82.54,57.84c.02-2.87.05-5.73.08-8.6.19.06.37.12.56.17-.29,2.8.76,5.71-.63,8.43Z"/>
      <path class="cls-47" d="M84.85,58.46c0-2.79,0-5.58-.01-8.37,1.04,2.79,1.01,5.58.01,8.37Z"/>
      <path class="cls-111" d="M75.78,35.48c-.64.32-.83.89-.85,1.56-2.24.15-2.97-2.04-4.42-3.08-4.27-3.07-8.94-5.03-13.99-6.19-2.45-.63-4.88-.55-7.32.05-1.02.14-2.03.21-2.85-.62-.3-.29-.6-.59-.91-.88,0,0,0-.02,0-.02,1.3-1.24,3.09-.82,4.58-1.43.5,0,.99.01,1.49.02,2.77.87,5.67-.16,8.45.58,3.44,1.35,6.88,2.71,10.32,4.06,1.59.39,2.53,1.49,3.1,2.97.79.99,1.59,1.99,2.38,2.98Z"/>
      <path class="cls-25" d="M73.4,32.49c-1.03-.99-2.07-1.98-3.1-2.97.31-.32.62-.65.93-.97,1.21,1.06,2.43,2.13,3.64,3.19-.6.02-1.18.09-1.47.75Z"/>
      <path class="cls-77" d="M59.97,25.47c-2.82-.1-5.72.83-8.45-.58,2.52-.02,5.03-.04,7.55-.06.3.21.6.43.91.64Z"/>
      <path class="cls-14" d="M50.03,24.87c-1.37,1.01-3.03,1.02-4.58,1.43,1.1-1.9,2.9-1.45,4.58-1.43Z"/>
      <path class="cls-9" d="M56.86,26.94c7.09,1.4,13.32,4.38,18.07,10.09,3.06,4.38,5.23,9.09,5.34,14.58.47,1.81.44,3.63.02,5.44.18,2.43-.54,4.66-1.46,6.84.13,3.25-2.93,4.91-3.72,7.7-3.28,2.57-6.57,5.15-9.85,7.72-1.17.44-1.58-.33-1.91-1.24.02-.57.3-1,.69-1.37.52-.43,1.11-.77,1.67-1.16.79-.64,1.78-.94,2.54-1.61,4.4-3.45,7.23-7.85,8.03-13.5.24-.87.08-1.81.46-2.65,1.26-1.92,1.39-3.88.21-5.89-.75-1.37-.37-2.94-.77-4.36-2.07-9.18-8.15-14.28-16.68-16.9,9.52,3.85,16.07,10.17,17.03,21.13.08.38.12.76.14,1.14.09,1.99-.08,3.96-.27,5.93-1.1,6.13-3.87,11.29-8.66,15.26-.98.6-2.03.94-3.18.84-.72-.25-1.14-.78-1.35-1.49-1.07-2.11-2.01.7-3.04.11-1.61-.17-2.13-1.21-2.11-2.69,2-2.46,4.84-3.61,7.56-4.94,2.51,2.39,2.83-1.53,4.48-1.61,4.21-3.7,3.8-8.17,2.08-12.86-.44-.78-.82-1.58-.8-2.51.26-1.67-.55-3.02-1.29-4.38-.18-.3-.34-.61-.49-.92-1.43-3.67-4.93-5.09-7.69-7.3-.9-.4-1.85-.63-2.83-.73-.97-.13-1.87-.46-2.74-.87-.71-.36-1.49-.34-2.25-.42-.31-.12-.52-.34-.64-.65-.62-1.46,2.13-2.09.86-3.69-1.85-.59-3.66-.66-5.4.35-4.78,1.31-9.24,3.17-12.68,7.01-.68.76-1.64,1.18-2.74.88-.56-.25-.9-.7-1.11-1.27.14-1.12,1.03-1.65,1.77-2.3,3.29-3.8,8.03-5.16,12.21-7.46.96-.05,1.92-.09,2.89-.14,2.53-.54,5.08-.36,7.63-.11Z"/>
      <path class="cls-90" d="M32.36,36.95c.36.34.73.67,1.09,1.01.37.93-.04,1.71-.43,2.5-1.42,2.08-2.85,4.15-3.26,6.74-.37,1.32-.4,2.68-.46,4.04-.28,1.94-.37,3.86.21,5.77.35,5.31,2.86,9.65,5.94,13.74,1.62,2.86,4.3,4.34,7.12,5.64.63.36,1.25.73,1.6,1.41-.11,1.05-.44,1.83-1.72,1.45-4.49-1.19-7.38-4.66-10.6-7.66-.89-2.5-2.32-4.7-3.75-6.89.04-.63-.08-1.2-.61-1.61-2.47-9.5-2.5-18.53,4.87-26.13Z"/>
      <path class="cls-117" d="M42.45,79.25c.51-.47,1.01-.94,1.52-1.41.37-.55.92-.72,1.54-.74,1,.06,1.93.39,2.89.63,3.92.83,7.82.71,11.71-.15,1.17-.02,2.39-.58,3.49.28.55.48,1.1.97,1.64,1.45-2.76,1.98-5.98,2.14-9.18,2.35-1.77.38-3.54.39-5.31,0-2.7-1.06-5.97-.07-8.3-2.41Z"/>
      <path class="cls-88" d="M50.76,81.67c1.77,0,3.54,0,5.31,0-1.77.98-3.54.97-5.31,0Z"/>
      <path class="cls-113" d="M80.28,57.06c0-1.81-.01-3.63-.02-5.44,1.12,1.81,1.02,3.62.02,5.44Z"/>
      <path class="cls-34" d="M56.86,26.94c-2.54.04-5.08.08-7.63.11,2.53-1.13,5.07-1.01,7.63-.11Z"/>
      <path class="cls-92" d="M65.83,66.15c-2.2,2.01-4.77,3.43-7.46,4.63-1.67-.1-3.65.11-2.68-2.7,1.63-1.08,3.67-1.27,5.24-2.48,2.95-2.16,4.67-5.18,5.82-8.6.5-1.3.46-2.6,0-3.9-.48-2.58-1.53-4.92-2.99-7.08-1.43-2.18-4.09-2.63-5.87-4.32-.66-.99-1.16-2.01-.47-3.21,3.95-.64,6.38,1.97,8.95,4.32,1.76,2.18,2.96,4.64,3.53,7.41.75,2.36.81,4.79.67,7.24-.7,3.38-1.69,6.61-4.74,8.68Z"/>
      <path class="cls-123" d="M68.94,50.15c-.26-2.65-1.94-4.61-3.15-6.8-.42-1-.04-1.79.65-2.5,2.46-.44,2.71,1.99,3.95,3.14h0c.45,1.56,1.24,3,1.51,4.62.25.76.5,1.52.76,2.27,1.79,5.25.78,10.06-2.23,14.55-2.04.23-2.18,2.73-4.06,3.37-.17-.86-.35-1.76-.53-2.65,1.28-2.76,3.27-5.18,3.89-8.26.33-2.64,1.01-5.32-.77-7.75Z"/>
      <path class="cls-83" d="M57.63,38.71c.25.97.49,1.93.74,2.9.61.73.78,1.58.65,2.51.08.64-.65,1.48.47,1.84.59.01,1.12-.19,1.65-.4.59-.23,1.18-.42,1.82-.23,1.39,1,.65,1.96-.05,2.92-.18.27-.38.52-.6.76-.66.68-1.49,1.2-1.86,2.13-.65,2.66-1.17,5.36-3.02,7.51-1.24,1.44.02,2.83.11,4.25.03.56-.08,1.1-.35,1.59-.24.29-.55.46-.93.48-.56-.13-.97-.46-1.3-.91-.45-.77-.83-1.58-1.37-2.31-1.09-2.13-.57-3.97.98-5.63.36-.4.75-.76,1.14-1.13.96-.8,1.22-1.87,1.18-3.05-.05.62-.34,1.11-.86,1.46-.38.06-.71-.03-1.02-.26-1.01-1.46-1.36-3.09-1.27-4.84.03-.36.11-.72.22-1.07.43-1.13,1.04-2.19,1.47-3.32.57-1.24.52-2.48.05-3.74-.26-.82-.58-1.6-1.01-2.34-.59-1.22-1-2.44-.04-3.66.55-.83,1.12-.9,1.69-.03.33.38.63.78.84,1.25.32,1.09,1.26,2.05.67,3.33Z"/>
      <path class="cls-107" d="M75.79,51.67c-1.15-9.83-7.89-17.66-17.25-19.97-.9-.22-1.91-.14-1.55-1.46.32-1.19,1.41-.92,2.2-.72,8.19,2.08,15.91,8.15,17.85,17.63-1.02,1.33.98,3.52-1.24,4.51Z"/>
      <path class="cls-108" d="M55.42,63.91c.23.29.45.57.68.86.95,1.23.53,2.43-.08,3.62-.96,2.56,2.2.95,2.35,2.39.5,1.04.71,2.4,2.35,2.18.69.03.91.46.93,1.08-.24.87-.87,1.1-1.67,1.04-1.05-.24-1.92-.84-2.76-1.47-1.23-1.04-2.52-1.93-4.23-1.81-.45.09-.86.28-1.22.57-.63.43-1.12,1.4-2.08.56-.39-.64-.44-1.33-.32-2.06.21-.91.77-1.55,1.5-2.07,1.18-1.04.39-2.2.16-3.31-2.93-4.45-4.52-9.42-5.67-14.59-.1-1.36-.12-2.71.07-4.07.14-.79.46-1.49,1.07-2.02.32-.22.67-.28,1.05-.2,1.64,1.34.51,3.06.61,4.61.38,1.89,1.06,3.68,1.7,5.49,1.4,3.02,2.32,6.27,4.28,9,.34.45-.04,1.11.41,1.53-.07-.68.3-1.07.86-1.34Z"/>
      <path class="cls-62" d="M55.22,29.38c2.6,2.45-2.05,2.85-1.31,4.78-.15,2.07.28,4.07.76,6.07.08.6.08,1.19.05,1.79-.31,2.95-1.94,5.5-2.46,8.41-.22,1.27-1.07,2.07-2.47,1.12-.64-.74-.93-1.64-1.18-2.57-.25-.97-.03-1.96-.12-2.94-.08-.87-.09-1.87-1.44-1.34l-.08.05c-1.19.33-1.43-.7-1.92-1.38-.16-.33-.28-.66-.37-1.01-.57-1.93-.05-3.6,1.16-5.11.59-.55,1.25-.75,2-.35.54.54.72,1.25.91,1.96.33,1.16.65,2.32,1.74,3.07,1.39-.95.66-2.29.86-3.4-.02-.7-.01-1.41,0-2.11,0-.7.05-1.4.16-2.09.15-.84.48-1.62.87-2.38.22-.44.46-.86.71-1.28.32-.56.68-1.1,1.27-1.41.31-.16.59-.12.85.11Z"/>
      <path class="cls-12" d="M54.62,29.48c-.31.45-.62.89-.94,1.34-1.15,1.2-2.78,1.02-4.17,1.5-6.05.63-10.03,4.77-14.17,8.64-2.68,1.31-2.88,1.23-2.72-.96.28-.68.55-1.36.83-2.04.36-.1.85-.09,1.06-.33,3.81-4.4,8.7-6.86,14.21-8.2,1.97-.59,3.94-.66,5.9.05Z"/>
      <path class="cls-53" d="M77.06,60.84c-.9,5.97-3.63,10.74-8.86,13.86-.85.24-1.07-.15-.9-.93,3.98-4.1,6.85-8.86,8.42-14.41.19-.28.45-.36.76-.24.42.5.18,1.22.58,1.72Z"/>
      <path class="cls-126" d="M59.65,74.58c.69.04,1.32-.04,1.69-.73.55-.85,1.15-1.58,2.26-.78.29.58.58,1.16.87,1.74.56.18.91.52.81,1.17-.61.74-1.5.79-2.34.95-1.29.07-2.56-.74-3.87-.09-.8.27-1.6.59-2.46.31-1.7-1.09-3.49-.85-5.28-.3-1.04.25-2.1.27-3.16.34-.9.1-1.8.13-2.71.12-.38-.01-.71-.14-1.01-.38-.42-.7-.4-1.42-.12-2.17.47-.82,1.12-1.46,1.92-1.94.75-.27,1.42-.05,2.08.31,1.11.85,2.36.75,3.63.53,1.37-.02,2.74-.05,4.12,0,1.22.19,2.43.45,3.57.93Z"/>
      <path class="cls-119" d="M70.42,65.43c1.61-4.71,2.91-9.48,2.23-14.55,2.95,4.64,2.14,9.91-2.23,14.55Z"/>
      <path class="cls-30" d="M45.52,77c.7-.44,1.34-1.11,2.29-.59,2.42.56,4.77-.27,7.16-.36.87-.35,1.36.28,1.91.77.72-.19,1.32-.91,2.17-.49,1.28-.36,2.5.35,3.77.25.54.01,1.1-.06,1.54.37-.25.31-.5.62-.75.93-1,.29-1.97.81-3.07.51-4.26-.04-8.51.29-12.77-.04-.77-.19-1.54-.39-2.3-.58-.24-.19-.31-.36-.22-.52.09-.16.18-.23.27-.23Z"/>
      <path class="cls-84" d="M70.38,43.98c-1.25-1.05-2.51-2.1-3.76-3.15-2.27-1.12-4.65-2.09-6.23-4.26.23-.89,1.14-.6,1.67-.99,3.17,2.4,7.5,3.61,8.32,8.4Z"/>
      <path class="cls-44" d="M77.06,60.84c-.26-.58-.51-1.16-.77-1.74-.7-2.2.29-4.55-.57-6.74-.05-.24-.03-.47.07-.69,1.41-1.22-.12-3.28,1.24-4.51.49,1.46-.48,3.18.8,4.49.64,2.12,1.13,4.23-.55,6.14-.07,1.02-.14,2.03-.22,3.05Z"/>
      <path class="cls-118" d="M53.92,40.12c-1.03-1.99-1.18-3.97-.01-5.96.17-.02.35-.02.52,0,.1,1.31-.02,2.68,1.08,3.68-.41.85,0,2.3-1.59,2.29Z"/>
      <path class="cls-119" d="M71.89,48.6c-1.39-1.24-1.58-2.88-1.51-4.62.83,1.43,2.65,2.52,1.51,4.62Z"/>
      <path class="cls-28" d="M64.95,75.49c-.16-.23-.32-.47-.48-.7.76-.86,1.83-.85,2.83-1.03.3.31.6.62.9.93-.78.51-1.56,1.02-2.34,1.53-.42-.09-.6-.5-.91-.74Z"/>
      <path class="cls-52" d="M54.62,29.48c-1.97-.02-3.93-.03-5.9-.05,2.16-1.25,4.32-1.23,6.5-.05-.19.07-.39.1-.6.1Z"/>
      <path class="cls-142" d="M77.28,57.79c.94-1.98.72-4.06.55-6.14,1.19,2.17,1.96,4.31-.55,6.14Z"/>
      <path class="cls-89" d="M75.72,52.36c1.49,2.13.42,4.49.57,6.74-.19.08-.39.16-.57.26,0-2.33,0-4.66,0-6.99Z"/>
      <path class="cls-1" d="M62.06,35.58c-.28.65-.86.76-1.45.86-.93.7-1.74.57-2.44-.36-.15-.74.46-.94.88-1.28,1.11-.17,2.08.23,3.01.78Z"/>
      <path class="cls-158" d="M63.6,73.06c-.75.26-1.51.52-2.26.78-.21-.29-.41-.59-.62-.88.78-.88,1.71-1.62,2.91-1.21.58.2.03.86-.03,1.31Z"/>
      <path class="cls-21" d="M59.05,34.8c-.27.29-.53.57-.8.86-.77.61-1.48.45-2.15-.17,0-.45.01-.91.02-1.36.98.23,1.95.45,2.93.68Z"/>
      <path class="cls-7" d="M64.95,75.49c.3.25.61.49.91.74-.29.72-.91.7-1.51.71-.52-.03-1.05-.06-1.57-.08-.19-.2-.23-.35-.11-.45.09-.08.18-.12.29-.12.73-.1,1.54,0,2-.8Z"/>
      <path class="cls-128" d="M28.82,50.87c-1.11-1.34.03-2.56.2-3.83,1.11-.8,1.98-.53,2.66.6.42,1.01.38,2.06.19,3.11-.67,2.47-.65,4.95-.14,7.44.38,3.31,1.79,6.22,3.49,9.02.64,1.29,1.74,2.28,2.24,3.66,0,.38-.12.72-.39.99-.74.4-1.41.24-2.03-.28-3.25-4.31-6.42-8.65-6.24-14.48-.44-2.08-.46-4.15.02-6.23Z"/>
      <path class="cls-100" d="M31.18,47.91c-.47-.95-1.34-.84-2.16-.86.32-2.81,1.59-5.13,3.61-7.04.64,2.89,1.72-.45,2.52.19.55,2.43-1.32,4.09-1.9,6.16-.52.76-.89,1.71-2.07,1.56Z"/>
      <path class="cls-66" d="M35.04,71.58l2.29-.05c1.5-.2,2.62.78,3.92,1.24,1.06.75,2.26,1.37,2.49,2.86-.11.78-.15,1.63-1.31,1.37-3.11-.9-5.78-2.42-7.4-5.43Z"/>
      <path class="cls-116" d="M28.82,50.87c0,2.08-.01,4.15-.02,6.23-1.06-2.08-1.07-4.16.02-6.23Z"/>
      <path class="cls-151" d="M42.44,77.01c.63-.33.74-.94.78-1.57,1.36-.59.82,1.14,1.56,1.32.25.08.49.17.74.25-.03.25-.05.5-.05.76-.5.03-.99.05-1.49.08-.51-.28-1.02-.56-1.53-.83Z"/>
      <path class="cls-72" d="M47.77,78.34c4.26-.99,8.52-1.1,12.77.04-4.26,1.14-8.52,1.64-12.77-.04Z"/>
      <path class="cls-141" d="M62.12,47.87c.33-.75,1.64-1.19.71-2.34.52-.51,1.07-.43,1.63-.08,1.61,2.33,3.05,4.74,3.04,7.73.35,1.29.41,2.58-.04,3.86-.66,4.02-2.89,6.98-6.09,9.29-.93-.51-1.65-1.18-1.78-2.33.33-1.22,1.35-1.94,2.01-2.92,1.18-1.46,1.9-3.12,2.18-4.98.47-1.78.62-3.56.01-5.33-.56-.97-.88-2.07-1.67-2.9Z"/>
      <path class="cls-98" d="M56.1,35.49c.72.06,1.43.11,2.15.17.6.83,1.53.64,2.36.79,2.12,1.31,4.63,2.05,6.01,4.39-.28.84-.56,1.67-.84,2.51-2.34-2.24-4.94-3.99-8.16-4.64-.51-1.07-1.02-2.15-1.53-3.22Z"/>
      <path class="cls-31" d="M59.85,64.1c.65.64,1.63,1.05,1.52,2.23-1.48,1.49-3.43,1.72-5.34,2.07-.77-1.23.28-2.41.08-3.62.27-.03.54-.06.8-.09.58-.67,1.32-.98,2.17-1.07.35.02.61.19.78.5Z"/>
      <path class="cls-125" d="M64.45,45.45c-.54.03-1.08.05-1.63.08-.53.23-1.05.46-1.58.69-.52-.44-1.19-.48-1.8-.7-.47-.17-.9-.4-1.15-.87.03-1.02.05-2.04.08-3.05,2.15,1.08,4.86,1.26,6.08,3.85Z"/>
      <path class="cls-41" d="M68.94,50.15c2.8,2.32,1.47,5.07.77,7.75-.17-2.59.21-5.24-.77-7.75Z"/>
      <path class="cls-73" d="M67.45,57.04c.01-1.29.03-2.57.04-3.86.9,1.3.95,2.59-.04,3.86Z"/>
      <path class="cls-39" d="M49.91,50.99c.42.59,1.39.76,1.38.19-.05-3.45,2.15-6.21,2.62-9.46.69-.64,1.31-1.57,2.4-.63.09.96.28,1.93-.18,2.86-.16,1.28-.63,2.41-1.57,3.3-1.21,2.15-1.33,4.72-2.86,6.82-.62.86.03,2.64,2,1.95.63-.22,1.21-.26,1.74.24-1.45,1.62-2.6,3.3-1.04,5.51.72,1.15,1.06,2.15-.87,2.22-2.85-2.38-2.85-6.11-4.25-9.18-.25-1.35-1.4-2.86.63-3.82Z"/>
      <path class="cls-121" d="M55.44,56.26c-2.5,1.88-4.31,1.6-5.09-1.72-.11-.46-.2-1.35-.07-1.4,3.1-1.17,2.41-4.32,3.41-6.56.19-.43.49-.46.72-.06.12.2.11.48.16.73.04.2,0,.37-.13.53-.59,1.98-.38,3.8,1.04,5.37l.36-.03c.96.73.77,1.6.29,2.5-.23.22-.46.43-.69.65Z"/>
      <path class="cls-94" d="M56.96,63.15c-1.5-2.25-2.05-4.25.54-6.32,2.01-1.61,1.05-4.69,2.46-6.72.6-.45,1.16-.45,1.68.14.8,4.43-1.25,8.25-2.56,12.22-.27.82-1.14,1.33-2.13.69Z"/>
      <path class="cls-46" d="M56.96,63.15c1.4-.17,1.84-1.35,1.98-2.42.49-3.61,2.38-6.88,2.39-10.59,2.53.79,1.55,2.97,1.72,4.63.17,1.64-.33,3.22-.88,4.75-.56,1.81-1.96,3.05-3,4.53-.62.73-1.46.62-2.28.62.02-.51.04-1.02.06-1.53Z"/>
      <path class="cls-81" d="M61.3,60.07c.35-3.31,1.88-6.61.04-9.93-.46,0-.91-.02-1.37-.03.23-1.13,1.4-1.03,2.04-1.61,2.23.86,2.38,2.79,2.32,4.78-.07,2.37-.28,4.72-1.87,6.66-.36.33-.75.37-1.16.12Z"/>
      <path class="cls-79" d="M62.05,60.07c1.57-3.86,2.92-7.72-.05-11.57.04-.21.08-.42.11-.64,1.62-.14,1.67,1.32,2.23,2.26.62,2.05.53,4.11.06,6.17.19,2.21-.83,3.89-2.29,5.38-.44-.52-.49-1.05-.06-1.61Z"/>
      <path class="cls-18" d="M56.13,55.62c-.1-.83-.19-1.67-.29-2.5.54-1.19,1.07-2.39,1.61-3.58.37.12.73.24,1.1.37-2.2,1.52.78,4.48-2.42,5.71Z"/>
      <path class="cls-16" d="M53.53,64c1.08-.42,1-1.31.88-2.22,1.37.21.69,1.42,1.02,2.14-.43,1.24-.87,2.48-1.41,4.03-1.55-1.48.51-2.86-.49-3.95Z"/>
      <path class="cls-135" d="M55.99,40.96c-.69.25-1.39.5-2.08.76,0-.53,0-1.06,0-1.59.85-.53.39-2.01,1.59-2.29.82.59.38,1.54.63,2.29.23.33.19.61-.15.83Z"/>
      <path class="cls-96" d="M58.29,44.66l1.46.2c.71.69.67,1.36-.02,2.03-.72.12-1.61.49-2.04-.27-.36-.64-.15-1.48.61-1.96Z"/>
      <path class="cls-39" d="M55.48,53.15c-2.5-1.36-2.04-3.31-1.04-5.37-.26,1.91.83,3.55,1.04,5.37Z"/>
      <path class="cls-154" d="M55.99,40.96c.05-.28.1-.55.15-.83,1.12,1.28.97,2.55,0,3.82-.05-1-.1-1.99-.15-2.99Z"/>
      <path class="cls-45" d="M59.72,46.89c0-.68.02-1.36.02-2.03,1.03-.14,1.53.32,1.5,1.37-.51.22-1.01.44-1.52.66Z"/>
      <path class="cls-49" d="M45.6,43.2c.46.52.91,1.04,1.37,1.56-.29.58-.58,1.17-.86,1.75-.52.76-.85,1.64-1.33,2.43-.12.29-.26.57-.39.85-.31.75-.5,1.53-.69,2.31-.7,2.73-.09,5.21,1.38,7.53,1.22,1.99,2.52,3.9,4.8,4.8.82.22,1.6.51,2.33.95-.5,1.24,1.3,2.89-.67,3.87-6.26-.15-11.63-5.26-12.33-11.75-.01-1.84-.02-3.68,0-5.53.59-4.08,2.01-7.55,6.4-8.76Z"/>
      <path class="cls-105" d="M45.6,43.2c-2.75,2.19-5.21,4.57-5.47,8.43-.53,2.07-.49,4.15-.03,6.23.92,6.79,6,9.27,11.43,11.38-.52.56-1.03,1.11-1.55,1.67-2.34,1.3-4.11-.22-5.72-1.45-3.41-2.61-6.16-5.82-7.13-10.24-.16-.81-.2-1.63-.22-2.46.05-2.08-.1-4.16.14-6.23.62-3.17,2.14-5.85,4.49-8,1.19-1.09,2.59-2.31,3.86.03.04.22.1.44.19.65Z"/>
      <path class="cls-157" d="M37.83,59.28c2.53,5.52,5.63,10.42,12.16,11.62.01.78.02,1.55.03,2.33-.3,1.6-1.32.95-2.2.73-.32-.62-.87-.81-1.51-.85-1.46.69-2.43-.42-3.55-1-4.11-3.3-8-6.74-8.2-12.65,1.03-.96,1.98-3.56,3.26-.19Z"/>
      <path class="cls-110" d="M52.21,65.37c-.98-.03-1.95-.05-2.93-.08-3.28-3.76-4.86-8.3-5.79-13.13.23-.96-.06-1.98.34-2.92.02-.23.08-.43.2-.63,2.55-1,1.39,1.52,2.09,2.27,1.63,5,2.72,10.24,6.08,14.49Z"/>
      <path class="cls-86" d="M52.38,70.97c2.17-.48,3.9.17,5.18,2.02-.19.9-.83,1.17-1.63,1.24-.38-.03-.75-.11-1.11-.23-1.62-.34-3.91-.13-2.44-3.03Z"/>
      <path class="cls-133" d="M47.05,44.71c.06-.46-.21-1.08.43-1.29.96-.33,1.49.45,1.58,1.1.19,1.35.09,2.74.11,4.12-.44.96-1.04,1.48-2.06.71-.43-1.54,1.85-3.12-.06-4.64Z"/>
      <path class="cls-115" d="M47.11,49.35c.69-.24,1.37-.47,2.06-.71.44.72,1.12,1.36.74,2.35-1.24,1.1-.3,2.57-.63,3.82-1.3-1.58-1.39-3.66-2.17-5.46Z"/>
      <path class="cls-80" d="M47.82,73.97c.77-.12,1.69.21,2.2-.73.48-.57.95-1.14,1.43-1.71.63.56.42,1.36.58,2.05-.09.37-.28.67-.57.91-1.24-.02-2.58.74-3.64-.53Z"/>
      <path class="cls-32" d="M46.13,50.88c-.89-.57-.47-2.39-2.09-2.27.3-1.09,1.28-1.5,2.07-2.1,0,1.46.01,2.91.02,4.37Z"/>
      <path class="cls-37" d="M51.56,73.85c-.04-.77-.07-1.55-.11-2.32.17-.43.4-.75.93-.56-.64,2.71,2.07,1.74,2.95,2.77-1.23.85-2.49.67-3.76.11Z"/>
      <path class="cls-19" d="M56.02,73.97c.51-.33,1.03-.65,1.54-.98.7.53,1.39,1.06,2.09,1.58-1.19-.02-2.37-.03-3.56-.05-.26-.09-.36-.21-.29-.34.07-.14.15-.22.22-.22Z"/>
      <path class="cls-56" d="M32.64,46.24c.02-2.36,1.8-3.98,2.51-6.06,3.81-4.32,7.86-8.23,14.04-8.52,1.32-.41,2.64-.67,3.91.16-.28.73-.57,1.46-.85,2.2-.97.99-2.31.96-3.5,1.34-1.89.36-3.72.85-5.17,2.26-3.34,1.7-5.9,4.12-7.29,7.76-.48,1.26-1.12,2.62-2.82,2.65-.7-.4-1.2-.89-.83-1.8Z"/>
      <path class="cls-143" d="M45.41,42.55c-.98-.98-1.69-.77-2.75.17-2.31,2.04-3.63,4.64-4.78,7.4-.32.3-.68.39-1.1.27-1.23-.76-1.24-1.96-1.13-3.21,1.09-4.77,4.25-7.71,8.39-9.8.8-.23,1.55-.19,2.18.45-.9,1.46-1.24,3.03-.8,4.73Z"/>
      <path class="cls-65" d="M52.22,38.72c-.22,1.65,1.02,4.26-.86,4.74-2.29.59-2.69-2.24-3.54-3.92,1.27-1.35,2.64-2.2,4.4-.82Z"/>
      <path class="cls-102" d="M46.21,37.82c-.74.02-1.49.04-2.23.05-.77.23-.98-.1-.8-.83,1.24-1.93,3.15-2.32,5.22-2.34.76.39,1.08,1.04,1.1,1.88-.38.88-.98,1.09-1.8.59-.61-.07-1.15.04-1.48.64Z"/>
      <path class="cls-2" d="M47.69,37.18c.52-.29,1.04-.57,1.56-.86.93-.85,1.9-.89,2.9-.14.02.84.05,1.69.07,2.53-1.6-.44-2.88.82-4.4.82-.04-.79-.09-1.57-.13-2.36Z"/>
      <path class="cls-10" d="M52.15,36.18c-.97.05-1.93.09-2.9.14-.64-.34-.74-.98-.86-1.61,1.14-1.08,2.55-.56,3.86-.68-.03.72-.07,1.43-.1,2.15Z"/>
      <path class="cls-69" d="M53.1,31.83c-1.3-.05-2.61-.11-3.91-.16,1.31-1.3,3.03-.41,4.5-.85-.19.34-.39.67-.58,1.01Z"/>
      <path class="cls-63" d="M44.78,76.75c-.52-.44-1.04-.88-1.56-1.32-.78-.7-1.57-1.41-2.35-2.11-.37-.66.02-1,.52-1.3.78-.26,1.41.15,2.06.47.73.5,1.65.88,1.29,2.08.01.72.02,1.45.03,2.17Z"/>
      <path class="cls-43" d="M55.33,76.3c-2.49,1.08-5.01.92-7.53.11,1.22-.12,2.44-.24,3.66-.37,1.31-.24,2.63-.64,3.86.26Z"/>
      <path class="cls-75" d="M44.74,74.58l-1.5-1.51c-.44-.47-.49-.94-.02-1.42,1.03.49,2.06.98,3.09,1.47-.02,1.04-.51,1.57-1.57,1.46Z"/>
      <path class="cls-136" d="M55.33,76.3c-1.29-.09-2.57-.17-3.86-.26,1.95-.8,3.89-1.57,5.4.77-.51-.17-1.03-.35-1.54-.52Z"/>
      <path class="cls-36" d="M62.95,76.3c-.07.19-.12.37-.17.56-1.26-.04-2.61.53-3.73-.53,1.29-1.84,2.6.04,3.91-.03Z"/>
      <path class="cls-60" d="M56.02,73.97c.01.19.04.38.07.56-1.54-.01-3.08-.03-4.63-.04.03-.21.06-.43.1-.64,1.26-.04,2.51-.07,3.77-.11.23.07.46.14.69.23Z"/>
      <path class="cls-59" d="M43.22,71.65c0,.47.01.95.02,1.42-.51-.25-1.01-.49-1.52-.74-1.57-.31-2.78-1.74-4.52-1.52-1.06-.74-2.16-1.46-2.29-2.95-1.99-4.38-2.75-9.07-3.13-13.8-.18-2.18-.49-4.59,1.65-6.21,1.27-.57,1.77-1.81,2.18-2.96,1.35-3.82,3.87-6.4,7.57-7.83.27.27.53.55.8.83-3.06,2.57-6.66,4.66-7.57,9.08-1.24,2.25-.2,4.64-.38,6.96-.15,1.85.15,3.76-1.06,5.38.92,5.38,4.38,9.01,8.26,12.35Z"/>
      <path class="cls-155" d="M33.43,47.85c-1.51,5.31-.47,10.43,1.16,15.49.49,1.52.26,3.02.31,4.53-2.48-2.6-3.72-5.73-3.85-9.33-.44-2.57-.43-5.14,0-7.71.04-.97.09-1.95.13-2.92.49-.55.97-1.11,1.46-1.66.26.53.53,1.07.79,1.6Z"/>
      <path class="cls-35" d="M37.2,70.81c2.43-2.32,3.17.54,4.52,1.52-.29.33-.57.66-.86.99-1.48.03-2.44-1.03-3.53-1.79-.07-.23-.12-.48-.14-.72Z"/>
      <path class="cls-42" d="M31.05,50.83c0,2.57,0,5.14,0,7.71-.98-2.57-1.05-5.14,0-7.71Z"/>
      <path class="cls-97" d="M62.05,60.07c.02.54.04,1.07.06,1.61-.76.81-1.51,1.61-2.27,2.42-.22-.04-.45-.06-.67-.04-.09-1.77,1.21-2.77,2.12-3.99.25,0,.5,0,.76,0Z"/>
      <path class="cls-3" d="M64.41,56.3c-.02-2.06-.04-4.12-.06-6.17,1.16,2.05,1.08,4.11.06,6.17Z"/>
      <path class="cls-54" d="M44,52.39c1.76,4.3,3.52,8.6,5.28,12.9-1.99-1.3-3.88-2.7-4.57-5.18-.9-1.21-1.22-2.63-1.44-4.09.05-1.25-.37-2.59.73-3.62Z"/>
      <path class="cls-145" d="M43.97,56.25c.25,1.29.49,2.57.74,3.86-2.45-2.49-2.88-5.36-1.57-8.56,1.11,1.42-.19,3.27.83,4.7Z"/>
      <path class="cls-130" d="M43.97,56.25c-1.38-1.37-.44-3.16-.83-4.7.07-.82-.01-1.69.7-2.31.05,1.05.11,2.1.16,3.15,0,1.29-.02,2.57-.02,3.86Z"/>
      <path class="cls-122" d="M40.11,57.86c-.98-2.08-1.05-4.16.03-6.23,0,2.08-.02,4.15-.03,6.23Z"/>
      <path class="cls-17" d="M34.96,59.3c.42-4.12-1.38-8.51,1.45-12.35.15,1.12-.36,2.43.93,3.21.62,2.26-.24,4.62.5,6.87,0,.75,0,1.5-.01,2.24-.97-1.81-1.91.18-2.86.02Z"/>
      <path class="cls-51" d="M37.84,57.04c-1.18-2.21-.57-4.56-.5-6.87.18,0,.36-.02.54-.05-.01,2.31-.03,4.61-.04,6.92Z"/>
    </g>
  </g>
</svg>