<?xml version="1.0" encoding="UTF-8"?>
<svg id="Capa_2" data-name="Capa 2" xmlns="http://www.w3.org/2000/svg" viewBox="0 0 45.43 61.63">
  <defs>
    <style>
      .cls-1 {
        fill: #fff;
        stroke-width: 0px;
      }
    </style>
  </defs>
  <g id="Items">
    <g id="Tabs">
      <g id="Master">
        <path class="cls-1" d="M22.72,0c-1.49,0-3.02.13-4.54.45C9.22,2.17,2.09,9.41.4,18.36c-1.56,8.47,1.56,16.25,7.2,21.28,1.39,1.23,2.14,2.95,2.14,4.77v7.49c0,3.57,2.92,6.49,6.49,6.49h.91c1.14,1.95,3.18,3.24,5.58,3.24s4.48-1.3,5.58-3.24h.91c3.57,0,6.49-2.92,6.49-6.49v-7.49c0-1.78.71-3.54,2.08-4.74,4.7-4.15,7.66-10.22,7.66-16.97C45.43,10.15,35.27,0,22.72,0ZM24.34,35.68h-3.24v-8.4l-5.94-5.9,2.3-2.3,5.26,5.26,5.26-5.26,2.3,2.3-5.94,5.94v8.37ZM27.58,51.9s-.06-.03-.1-.03v.03h-9.54v-.03s-.06.03-.1.03c-.91,0-1.62-.71-1.62-1.62s.71-1.62,1.62-1.62c.03,0,.06.03.1.03v-.03h9.54v.03s.06-.03.1-.03c.91,0,1.62.71,1.62,1.62,0,.91-.71,1.62-1.62,1.62ZM27.58,45.41h-9.73c-.91,0-1.62-.71-1.62-1.62s.71-1.62,1.62-1.62h9.73c.91,0,1.62.71,1.62,1.62s-.71,1.62-1.62,1.62Z"/>
      </g>
    </g>
  </g>
</svg>