<?xml version="1.0" encoding="UTF-8"?>
<svg id="Capa_2" data-name="Capa 2" xmlns="http://www.w3.org/2000/svg" viewBox="0 0 69.1 56.91">
  <defs>
    <style>
      .cls-1 {
        fill: #fff;
        stroke-width: 0px;
      }
    </style>
  </defs>
  <g id="Achievements">
    <g id="Bottom_Navigation" data-name="Bottom Navigation">
      <path class="cls-1" d="M4.06,36.58h8.13c2.24,0,4.06-1.83,4.06-4.06v-8.13c0-2.24-1.83-4.06-4.06-4.06H4.06c-2.24,0-4.06,1.83-4.06,4.06v8.13c0,2.24,1.83,4.06,4.06,4.06ZM4.06,56.91h8.13c2.24,0,4.06-1.83,4.06-4.06v-8.13c0-2.24-1.83-4.06-4.06-4.06H4.06c-2.24,0-4.06,1.83-4.06,4.06v8.13c0,2.24,1.83,4.06,4.06,4.06ZM4.06,16.26h8.13c2.24,0,4.06-1.83,4.06-4.06V4.06c0-2.24-1.83-4.06-4.06-4.06H4.06C1.83,0,0,1.83,0,4.06v8.13c0,2.24,1.83,4.06,4.06,4.06ZM24.39,36.58h40.65c2.24,0,4.06-1.83,4.06-4.06v-8.13c0-2.24-1.83-4.06-4.06-4.06H24.39c-2.24,0-4.06,1.83-4.06,4.06v8.13c0,2.24,1.83,4.06,4.06,4.06ZM24.39,56.91h40.65c2.24,0,4.06-1.83,4.06-4.06v-8.13c0-2.24-1.83-4.06-4.06-4.06H24.39c-2.24,0-4.06,1.83-4.06,4.06v8.13c0,2.24,1.83,4.06,4.06,4.06ZM20.32,4.06v8.13c0,2.24,1.83,4.06,4.06,4.06h40.65c2.24,0,4.06-1.83,4.06-4.06V4.06c0-2.24-1.83-4.06-4.06-4.06H24.39c-2.24,0-4.06,1.83-4.06,4.06Z"/>
    </g>
  </g>
</svg>