<?xml version="1.0" encoding="UTF-8"?>
<svg id="Capa_2" data-name="Capa 2" xmlns="http://www.w3.org/2000/svg" viewBox="0 0 72 42.64">
  <defs>
    <style>
      .cls-1 {
        fill: #fff;
        stroke-width: 0px;
      }
    </style>
  </defs>
  <g id="Items">
    <g id="Tabs">
      <path class="cls-1" d="M53.09,3.13l5.3,5.3-17.95,17.95-12.1-12.1c-1.43-1.43-3.75-1.43-5.19,0L1.08,36.38c-1.43,1.43-1.43,3.75,0,5.19,1.43,1.43,3.75,1.43,5.19,0l19.46-19.5,12.1,12.1c1.43,1.43,3.75,1.43,5.19,0l20.56-20.53,5.3,5.3c1.14,1.14,3.13.33,3.13-1.29V1.84c.04-1.03-.77-1.84-1.8-1.84h-15.78c-1.66,0-2.46,1.99-1.32,3.13Z"/>
    </g>
  </g>
</svg>