<?xml version="1.0" encoding="UTF-8"?>
<svg id="Capa_2" data-name="Capa 2" xmlns="http://www.w3.org/2000/svg" viewBox="0 0 64 64">
  <defs>
    <style>
      .cls-1 {
        fill: #fff;
        stroke-width: 0px;
      }
    </style>
  </defs>
  <g id="Achievements">
    <g id="Bottom_Navigation" data-name="Bottom Navigation">
      <path class="cls-1" d="M3.56,35.56h21.33c1.96,0,3.56-1.6,3.56-3.56V3.56c0-1.96-1.6-3.56-3.56-3.56H3.56C1.6,0,0,1.6,0,3.56v28.44c0,1.96,1.6,3.56,3.56,3.56ZM3.56,64h21.33c1.96,0,3.56-1.6,3.56-3.56v-14.22c0-1.96-1.6-3.56-3.56-3.56H3.56c-1.96,0-3.56,1.6-3.56,3.56v14.22c0,1.96,1.6,3.56,3.56,3.56ZM39.11,64h21.33c1.96,0,3.56-1.6,3.56-3.56v-28.44c0-1.96-1.6-3.56-3.56-3.56h-21.33c-1.96,0-3.56,1.6-3.56,3.56v28.44c0,1.96,1.6,3.56,3.56,3.56ZM35.56,3.56v14.22c0,1.96,1.6,3.56,3.56,3.56h21.33c1.96,0,3.56-1.6,3.56-3.56V3.56c0-1.96-1.6-3.56-3.56-3.56h-21.33c-1.96,0-3.56,1.6-3.56,3.56Z"/>
    </g>
  </g>
</svg>