<?xml version="1.0" encoding="UTF-8"?>
<svg id="Capa_2" data-name="Capa 2" xmlns="http://www.w3.org/2000/svg" viewBox="0 0 59.55 59.55">
  <defs>
    <style>
      .cls-1 {
        fill: #fff;
        stroke-width: 0px;
      }
    </style>
  </defs>
  <g id="Capa_1-2" data-name="Capa 1">
    <polygon class="cls-1" points="11.96 47.59 19.75 55.39 19.75 39.8 4.16 39.8 11.96 47.59"/>
    <path class="cls-1" d="M0,0v33.91h22.69c1.62,0,2.94,1.32,2.94,2.94v22.69h33.91V0H0ZM48.12,28.9h-22.73c-1.62,0-2.94-1.32-2.94-2.94s1.32-2.94,2.94-2.94h22.73c1.62,0,2.94,1.32,2.94,2.94s-1.32,2.94-2.94,2.94ZM48.12,14.53H11.43c-1.62,0-2.94-1.32-2.94-2.94s1.32-2.94,2.94-2.94h36.69c1.62,0,2.94,1.32,2.94,2.94s-1.32,2.94-2.94,2.94Z"/>
  </g>
</svg>